<svg class="diagram-root" style="background: #f5f6f6" xmlns="http://www.w3.org/2000/svg" xmlns:xlink="http://www.w3.org/1999/xlink"><style>.diagram-root { font-family: "Helvetica Neue", sans-serif; font-size: 12px; } .t { overflow: visible; } .t-bg { y: 40; fill: #fff;   } .th { fill: #005aa0;   } .tht { fill: #fff; font-size: 14px;  } .tf { fill: #323c46; overflow: visible; } .tf.pk { fill: #005aa0; font-weight: bold; } .tf.fk { font-weight: bold; } .ty { fill: #adb1b5; font-weight: normal; text-anchor: end; } .r { fill: transparent; stroke: #c3c3c3; stroke-width: 1; } .l { stroke: 1; } .i { fill: #c2c7ce; stroke: #c2c7ce; } .i.ix { fill: #afb3b6; stroke: #000; } .fa { fill: transparent; overflow: visible; } .fa .bg.hover { fill: #f7f7f7; } .c { cy: 12; r: 4; stroke: #d2d2dc; fill: #d2d2dc; } .hr { fill: transparent; stroke: #323c46; stroke-opacity: 0.035; stroke-width: 13; } .dc { stroke: #fa5a3c; fill: #fa5a3c; } .x { stroke: white; stroke-width: 1; } .hl .th { fill: #1b9bff; } .hl .tht {  } .fhl .bg { fill: #e7f4ff; } .fhls .bg {  } .r.hl { stroke: #1b9bff; } .dim { opacity: 0.25; }</style><g class="drawing-wrapper" transform="translate(281.3333333333337, -24) scale(1,1)"><g class="rs"><path d="M -138.62 374.3333333333335 m -1, 0 a 1,1 0 1,0 2,0 a 1,1 0 1,0 -2,0 M -138.62 374.3333333333335 m -0.5, 0 a 0.5,0.5 0 1,0 1,0 a 0.5,0.5 0 1,0 -1,0  M-138.62 374.3333333333335 L-138.62 374.3333333333335 -126.62 374.3333333333335 M -138.62 380.3333333333335 m -1, 0 a 1,1 0 1,0 2,0 a 1,1 0 1,0 -2,0 M -138.62 380.3333333333335 m -0.5, 0 a 0.5,0.5 0 1,0 1,0 a 0.5,0.5 0 1,0 -1,0  M-138.62 380.3333333333335 L-138.62 380.3333333333335 -131.62 374.3333333333335 -138.62 368.3333333333335 M -138.62 368.3333333333335 m -1, 0 a 1,1 0 1,0 2,0 a 1,1 0 1,0 -2,0 M -138.62 368.3333333333335 m -0.5, 0 a 0.5,0.5 0 1,0 1,0 a 0.5,0.5 0 1,0 -1,0  M-126.62 374.3333333333335 C -72.02799999999999 374.3333333333335, -73.75 135.9999999999999, -123.75 135.9999999999999 M -135.75 135.9999999999999 m -1, 0 a 1,1 0 1,0 2,0 a 1,1 0 1,0 -2,0 M -135.75 135.9999999999999 m -0.5, 0 a 0.5,0.5 0 1,0 1,0 a 0.5,0.5 0 1,0 -1,0  M-135.75 135.9999999999999 L-135.75 135.9999999999999 -123.75 135.9999999999999 M-129.75 141.9999999999999 L-129.75 141.9999999999999 -129.75 129.9999999999999" id="h1543221608" class="r"></path><path d="M -138.62 399.3333333333335 m -1, 0 a 1,1 0 1,0 2,0 a 1,1 0 1,0 -2,0 M -138.62 399.3333333333335 m -0.5, 0 a 0.5,0.5 0 1,0 1,0 a 0.5,0.5 0 1,0 -1,0  M-138.62 399.3333333333335 L-138.62 399.3333333333335 -126.62 399.3333333333335 M -138.62 405.3333333333335 m -1, 0 a 1,1 0 1,0 2,0 a 1,1 0 1,0 -2,0 M -138.62 405.3333333333335 m -0.5, 0 a 0.5,0.5 0 1,0 1,0 a 0.5,0.5 0 1,0 -1,0  M-138.62 405.3333333333335 L-138.62 405.3333333333335 -131.62 399.3333333333335 -138.62 393.3333333333335 M -138.62 393.3333333333335 m -1, 0 a 1,1 0 1,0 2,0 a 1,1 0 1,0 -2,0 M -138.62 393.3333333333335 m -0.5, 0 a 0.5,0.5 0 1,0 1,0 a 0.5,0.5 0 1,0 -1,0  M-126.62 399.3333333333335 C -72.02799999999999 399.3333333333335, -73.75 135.9999999999999, -123.75 135.9999999999999 M -135.75 135.9999999999999 m -1, 0 a 1,1 0 1,0 2,0 a 1,1 0 1,0 -2,0 M -135.75 135.9999999999999 m -0.5, 0 a 0.5,0.5 0 1,0 1,0 a 0.5,0.5 0 1,0 -1,0  M-135.75 135.9999999999999 L-135.75 135.9999999999999 -123.75 135.9999999999999 M-129.75 141.9999999999999 L-129.75 141.9999999999999 -129.75 129.9999999999999" id="h493604816" class="r"></path><path d="M 328.06 236 m -1, 0 a 1,1 0 1,0 2,0 a 1,1 0 1,0 -2,0 M 328.06 236 m -0.5, 0 a 0.5,0.5 0 1,0 1,0 a 0.5,0.5 0 1,0 -1,0  M328.06 236 L328.06 236 340.06 236 M 328.06 242 m -1, 0 a 1,1 0 1,0 2,0 a 1,1 0 1,0 -2,0 M 328.06 242 m -0.5, 0 a 0.5,0.5 0 1,0 1,0 a 0.5,0.5 0 1,0 -1,0  M328.06 242 L328.06 242 335.06 236 328.06 230 M 328.06 230 m -1, 0 a 1,1 0 1,0 2,0 a 1,1 0 1,0 -2,0 M 328.06 230 m -0.5, 0 a 0.5,0.5 0 1,0 1,0 a 0.5,0.5 0 1,0 -1,0  M340.06 236 Q 361.79 236, 383.53 191.5 T 427 147 M 439 147 m -1, 0 a 1,1 0 1,0 2,0 a 1,1 0 1,0 -2,0 M 439 147 m -0.5, 0 a 0.5,0.5 0 1,0 1,0 a 0.5,0.5 0 1,0 -1,0  M439 147 L439 147 427 147 M433 153 L433 153 433 141" id="h137822289" class="r"></path><path d="M 328.06 261 m -1, 0 a 1,1 0 1,0 2,0 a 1,1 0 1,0 -2,0 M 328.06 261 m -0.5, 0 a 0.5,0.5 0 1,0 1,0 a 0.5,0.5 0 1,0 -1,0  M328.06 261 L328.06 261 340.06 261 M 328.06 267 m -1, 0 a 1,1 0 1,0 2,0 a 1,1 0 1,0 -2,0 M 328.06 267 m -0.5, 0 a 0.5,0.5 0 1,0 1,0 a 0.5,0.5 0 1,0 -1,0  M328.06 267 L328.06 267 335.06 261 328.06 255 M 328.06 255 m -1, 0 a 1,1 0 1,0 2,0 a 1,1 0 1,0 -2,0 M 328.06 255 m -0.5, 0 a 0.5,0.5 0 1,0 1,0 a 0.5,0.5 0 1,0 -1,0  M340.06 261 Q 361.54 261, 383.03 282 T 426 303 M 438 303 m -1, 0 a 1,1 0 1,0 2,0 a 1,1 0 1,0 -2,0 M 438 303 m -0.5, 0 a 0.5,0.5 0 1,0 1,0 a 0.5,0.5 0 1,0 -1,0  M438 303 L438 303 426 303 M432 309 L432 309 432 297" id="h3504355322" class="r"></path><path d="M 69.03 111 m -1, 0 a 1,1 0 1,0 2,0 a 1,1 0 1,0 -2,0 M 69.03 111 m -0.5, 0 a 0.5,0.5 0 1,0 1,0 a 0.5,0.5 0 1,0 -1,0  M69.03 111 L69.03 111 81.03 111 M 69.03 117 m -1, 0 a 1,1 0 1,0 2,0 a 1,1 0 1,0 -2,0 M 69.03 117 m -0.5, 0 a 0.5,0.5 0 1,0 1,0 a 0.5,0.5 0 1,0 -1,0  M69.03 117 L69.03 117 76.03 111 69.03 105 M 69.03 105 m -1, 0 a 1,1 0 1,0 2,0 a 1,1 0 1,0 -2,0 M 69.03 105 m -0.5, 0 a 0.5,0.5 0 1,0 1,0 a 0.5,0.5 0 1,0 -1,0  M81.03 111 Q 106.27 111, 131.51 111 T 182 111 M 194 111 m -1, 0 a 1,1 0 1,0 2,0 a 1,1 0 1,0 -2,0 M 194 111 m -0.5, 0 a 0.5,0.5 0 1,0 1,0 a 0.5,0.5 0 1,0 -1,0  M194 111 L194 111 182 111 M188 117 L188 117 188 105" id="h2246520870" class="r"></path><path d="M -29 136 m -1, 0 a 1,1 0 1,0 2,0 a 1,1 0 1,0 -2,0 M -29 136 m -0.5, 0 a 0.5,0.5 0 1,0 1,0 a 0.5,0.5 0 1,0 -1,0  M-29 136 L-29 136 -41 136 M -29 142 m -1, 0 a 1,1 0 1,0 2,0 a 1,1 0 1,0 -2,0 M -29 142 m -0.5, 0 a 0.5,0.5 0 1,0 1,0 a 0.5,0.5 0 1,0 -1,0  M-29 142 L-29 142 -36 136 -29 130 M -29 130 m -1, 0 a 1,1 0 1,0 2,0 a 1,1 0 1,0 -2,0 M -29 130 m -0.5, 0 a 0.5,0.5 0 1,0 1,0 a 0.5,0.5 0 1,0 -1,0  M-41 136 Q -61.68 136, -82.37 136 T -123.75 135.9999999999999 M -135.75 135.9999999999999 m -1, 0 a 1,1 0 1,0 2,0 a 1,1 0 1,0 -2,0 M -135.75 135.9999999999999 m -0.5, 0 a 0.5,0.5 0 1,0 1,0 a 0.5,0.5 0 1,0 -1,0  M-135.75 135.9999999999999 L-135.75 135.9999999999999 -123.75 135.9999999999999 M-129.75 141.9999999999999 L-129.75 141.9999999999999 -129.75 129.9999999999999" id="h1479079419" class="r"></path></g><g class="hrs"></g><g class="ts"><svg width="134.06" height="225" x="194" y="54" id="h2744470858" class="t"><rect height="40" width="134.06" class="th"></rect><text x="13" y="25" class="tht">Film</text><rect height="185" width="134.06" class="t-bg"></rect><text x="13" y="61" class="tf pk">film_id<tspan x="121.06" class="ty">int</tspan></text><path d="M7,14A2,2 0 0,1 5,12A2,2 0 0,1 7,10A2,2 0 0,1 9,12A2,2 0 0,1 7,14M12.65,10C11.83,7.67 9.61,6 7, 6A6, 6 0 0, 0 1, 12A6, 6 0 0, 0 7, 18C9.61, 18 11.83, 16.33 12.65, 14H17V18H21V14H23V10H12.65Z" class="i pk" transform="translate(88.386171875, 48) scale(0.65)"></path><text x="13" y="86" class="tf">name<tspan x="121.06" class="ty">string</tspan></text><text x="13" y="111" class="tf">description<tspan x="121.06" class="ty">string</tspan></text><text x="13" y="136" class="tf">releaseDate<tspan x="121.06" class="ty">date</tspan></text><text x="13" y="161" class="tf">duration<tspan x="121.06" class="ty">int</tspan></text><text x="13" y="186" class="tf fk">genre_id<tspan x="121.06" class="ty">int</tspan></text><text x="13" y="211" class="tf fk">rating_id<tspan x="121.06" class="ty">int</tspan></text></svg><svg width="142.73" height="100" x="439" y="90" id="h807582512" class="t"><rect height="40" width="142.73" class="th"></rect><text x="13" y="25" class="tht">Genre</text><rect height="60" width="142.73" class="t-bg"></rect><text x="13" y="61" class="tf pk">genre_id<tspan x="129.73" class="ty">int</tspan></text><path d="M7,14A2,2 0 0,1 5,12A2,2 0 0,1 7,10A2,2 0 0,1 9,12A2,2 0 0,1 7,14M12.65,10C11.83,7.67 9.61,6 7, 6A6, 6 0 0, 0 1, 12A6, 6 0 0, 0 7, 18C9.61, 18 11.83, 16.33 12.65, 14H17V18H21V14H23V10H12.65Z" class="i pk" transform="translate(97.05617187499999, 48) scale(0.65)"></path><text x="13" y="86" class="tf">genre_name<tspan x="129.73" class="ty">string</tspan></text></svg><svg width="138.71" height="100" x="438" y="246" id="h3920516257" class="t"><rect height="40" width="138.71" class="th"></rect><text x="13" y="25" class="tht">Rating</text><rect height="60" width="138.71" class="t-bg"></rect><text x="13" y="61" class="tf pk">rating_id<tspan x="125.71000000000001" class="ty">int</tspan></text><path d="M7,14A2,2 0 0,1 5,12A2,2 0 0,1 7,10A2,2 0 0,1 9,12A2,2 0 0,1 7,14M12.65,10C11.83,7.67 9.61,6 7, 6A6, 6 0 0, 0 1, 12A6, 6 0 0, 0 7, 18C9.61, 18 11.83, 16.33 12.65, 14H17V18H21V14H23V10H12.65Z" class="i pk" transform="translate(93.03617187500001, 48) scale(0.65)"></path><text x="13" y="86" class="tf">rating_name<tspan x="125.71000000000001" class="ty">stritg</tspan></text></svg><svg width="98.03" height="100" x="-29" y="54" id="h2477402307" class="t"><rect height="40" width="98.03" class="th"></rect><text x="13" y="25" class="tht">Film_likes</text><rect height="60" width="98.03" class="t-bg"></rect><text x="13" y="61" class="tf fk">film_id<tspan x="85.03" class="ty">int</tspan></text><text x="13" y="86" class="tf fk">user_id<tspan x="85.03" class="ty">int</tspan></text></svg><svg width="118.03" height="175" x="-253.77777777777794" y="78.99999999999989" id="h1537667952" class="t"><rect height="40" width="118.03" class="th"></rect><text x="13" y="25" class="tht">User</text><rect height="135" width="118.03" class="t-bg"></rect><text x="13" y="61" class="tf pk">user_id<tspan x="105.03" class="ty">int</tspan></text><path d="M7,14A2,2 0 0,1 5,12A2,2 0 0,1 7,10A2,2 0 0,1 9,12A2,2 0 0,1 7,14M12.65,10C11.83,7.67 9.61,6 7, 6A6, 6 0 0, 0 1, 12A6, 6 0 0, 0 7, 18C9.61, 18 11.83, 16.33 12.65, 14H17V18H21V14H23V10H12.65Z" class="i pk" transform="translate(72.356171875, 48) scale(0.65)"></path><text x="13" y="86" class="tf">email<tspan x="105.03" class="ty">string</tspan></text><text x="13" y="111" class="tf">login<tspan x="105.03" class="ty">string</tspan></text><text x="13" y="136" class="tf">name<tspan x="105.03" class="ty">string</tspan></text><text x="13" y="161" class="tf">birthday<tspan x="105.03" class="ty">date</tspan></text></svg><svg width="120.71" height="125" x="-259.3333333333337" y="317.3333333333335" id="h4266738316" class="t"><rect height="40" width="120.71" class="th"></rect><text x="13" y="25" class="tht">Friends_list</text><rect height="85" width="120.71" class="t-bg"></rect><text x="13" y="61" class="tf fk">sender_id<tspan x="107.71" class="ty">int</tspan></text><text x="13" y="86" class="tf fk">accepter_id<tspan x="107.71" class="ty">int</tspan></text><text x="13" y="111" class="tf">status<tspan x="107.71" class="ty">int</tspan></text></svg></g></g><text class="qdbd-link" x="10" y="20">www.quickdatabasediagrams.com</text></svg>