<svg class="diagram-root" style="background: #f5f6f6" xmlns="http://www.w3.org/2000/svg" xmlns:xlink="http://www.w3.org/1999/xlink"><style>.diagram-root { font-family: "Helvetica Neue", sans-serif; font-size: 12px; } .t { overflow: visible; } .t-bg { y: 40; fill: #fff;   } .th { fill: #005aa0;   } .tht { fill: #fff; font-size: 14px;  } .tf { fill: #323c46; overflow: visible; } .tf.pk { fill: #005aa0; font-weight: bold; } .tf.fk { font-weight: bold; } .ty { fill: #adb1b5; font-weight: normal; text-anchor: end; } .r { fill: transparent; stroke: #c3c3c3; stroke-width: 1; } .l { stroke: 1; } .i { fill: #c2c7ce; stroke: #c2c7ce; } .i.ix { fill: #afb3b6; stroke: #000; } .fa { fill: transparent; overflow: visible; } .fa .bg.hover { fill: #f7f7f7; } .c { cy: 12; r: 4; stroke: #d2d2dc; fill: #d2d2dc; } .hr { fill: transparent; stroke: #323c46; stroke-opacity: 0.035; stroke-width: 13; } .dc { stroke: #fa5a3c; fill: #fa5a3c; } .x { stroke: white; stroke-width: 1; } .hl .th { fill: #1b9bff; } .hl .tht {  } .fhl .bg { fill: #e7f4ff; } .fhls .bg {  } .r.hl { stroke: #1b9bff; } .dim { opacity: 0.25; }</style><g class="drawing-wrapper" transform="translate(-49.000000000000085, 8.775555555555552) scale(1,1)"><g class="rs"><path d="M 316.33 399.33 m -1, 0 a 1,1 0 1,0 2,0 a 1,1 0 1,0 -2,0 M 316.33 399.33 m -0.5, 0 a 0.5,0.5 0 1,0 1,0 a 0.5,0.5 0 1,0 -1,0  M316.33 399.33 L316.33 399.33 304.33 399.33 M 316.33 405.33 m -1, 0 a 1,1 0 1,0 2,0 a 1,1 0 1,0 -2,0 M 316.33 405.33 m -0.5, 0 a 0.5,0.5 0 1,0 1,0 a 0.5,0.5 0 1,0 -1,0  M316.33 405.33 L316.33 405.33 309.33 399.33 316.33 393.33 M 316.33 393.33 m -1, 0 a 1,1 0 1,0 2,0 a 1,1 0 1,0 -2,0 M 316.33 393.33 m -0.5, 0 a 0.5,0.5 0 1,0 1,0 a 0.5,0.5 0 1,0 -1,0  M304.33 399.33 Q 283.92 399.33, 263.52 386.33 T 222.7 373.33 M 210.7 373.33 m -1, 0 a 1,1 0 1,0 2,0 a 1,1 0 1,0 -2,0 M 210.7 373.33 m -0.5, 0 a 0.5,0.5 0 1,0 1,0 a 0.5,0.5 0 1,0 -1,0  M210.7 373.33 L210.7 373.33 222.7 373.33 M216.7 379.33 L216.7 379.33 216.7 367.33" id="h1543221608" class="r"></path><path d="M 316.33 424.33 m -1, 0 a 1,1 0 1,0 2,0 a 1,1 0 1,0 -2,0 M 316.33 424.33 m -0.5, 0 a 0.5,0.5 0 1,0 1,0 a 0.5,0.5 0 1,0 -1,0  M316.33 424.33 L316.33 424.33 304.33 424.33 M 316.33 430.33 m -1, 0 a 1,1 0 1,0 2,0 a 1,1 0 1,0 -2,0 M 316.33 430.33 m -0.5, 0 a 0.5,0.5 0 1,0 1,0 a 0.5,0.5 0 1,0 -1,0  M316.33 430.33 L316.33 430.33 309.33 424.33 316.33 418.33 M 316.33 418.33 m -1, 0 a 1,1 0 1,0 2,0 a 1,1 0 1,0 -2,0 M 316.33 418.33 m -0.5, 0 a 0.5,0.5 0 1,0 1,0 a 0.5,0.5 0 1,0 -1,0  M304.33 424.33 Q 283.92 424.33, 263.52 398.83 T 222.7 373.33 M 210.7 373.33 m -1, 0 a 1,1 0 1,0 2,0 a 1,1 0 1,0 -2,0 M 210.7 373.33 m -0.5, 0 a 0.5,0.5 0 1,0 1,0 a 0.5,0.5 0 1,0 -1,0  M210.7 373.33 L210.7 373.33 222.7 373.33 M216.7 379.33 L216.7 379.33 216.7 367.33" id="h493604816" class="r"></path><path d="M 481.72 449.33 m -1, 0 a 1,1 0 1,0 2,0 a 1,1 0 1,0 -2,0 M 481.72 449.33 m -0.5, 0 a 0.5,0.5 0 1,0 1,0 a 0.5,0.5 0 1,0 -1,0  M481.72 449.33 L481.72 449.33 493.72 449.33 M 481.72 455.33 m -1, 0 a 1,1 0 1,0 2,0 a 1,1 0 1,0 -2,0 M 481.72 455.33 m -0.5, 0 a 0.5,0.5 0 1,0 1,0 a 0.5,0.5 0 1,0 -1,0  M481.72 455.33 L481.72 455.33 488.72 449.33 481.72 443.33 M 481.72 443.33 m -1, 0 a 1,1 0 1,0 2,0 a 1,1 0 1,0 -2,0 M 481.72 443.33 m -0.5, 0 a 0.5,0.5 0 1,0 1,0 a 0.5,0.5 0 1,0 -1,0  M493.72 449.33 Q 514.66 449.33, 535.59 409.17 T 577.45 369 M 589.45 369 m -1, 0 a 1,1 0 1,0 2,0 a 1,1 0 1,0 -2,0 M 589.45 369 m -0.5, 0 a 0.5,0.5 0 1,0 1,0 a 0.5,0.5 0 1,0 -1,0  M589.45 369 L589.45 369 577.45 369 M583.45 375 L583.45 375 583.45 363" id="h1849332151" class="r"></path><path d="M 450.06 210.66666666666666 m -1, 0 a 1,1 0 1,0 2,0 a 1,1 0 1,0 -2,0 M 450.06 210.66666666666666 m -0.5, 0 a 0.5,0.5 0 1,0 1,0 a 0.5,0.5 0 1,0 -1,0  M450.06 210.66666666666666 L450.06 210.66666666666666 462.06 210.66666666666666 M 450.06 216.66666666666666 m -1, 0 a 1,1 0 1,0 2,0 a 1,1 0 1,0 -2,0 M 450.06 216.66666666666666 m -0.5, 0 a 0.5,0.5 0 1,0 1,0 a 0.5,0.5 0 1,0 -1,0  M450.06 216.66666666666666 L450.06 216.66666666666666 457.06 210.66666666666666 450.06 204.66666666666666 M 450.06 204.66666666666666 m -1, 0 a 1,1 0 1,0 2,0 a 1,1 0 1,0 -2,0 M 450.06 204.66666666666666 m -0.5, 0 a 0.5,0.5 0 1,0 1,0 a 0.5,0.5 0 1,0 -1,0  M462.06 210.66666666666666 Q 491.49 210.66666666666666, 520.92 222.72 T 579.78 234.78 M 591.78 234.78 m -1, 0 a 1,1 0 1,0 2,0 a 1,1 0 1,0 -2,0 M 591.78 234.78 m -0.5, 0 a 0.5,0.5 0 1,0 1,0 a 0.5,0.5 0 1,0 -1,0  M591.78 234.78 L591.78 234.78 579.78 234.78 M585.78 240.78 L585.78 240.78 585.78 228.78" id="h3504355322" class="r"></path><path d="M 224.38 112.67 m -1, 0 a 1,1 0 1,0 2,0 a 1,1 0 1,0 -2,0 M 224.38 112.67 m -0.5, 0 a 0.5,0.5 0 1,0 1,0 a 0.5,0.5 0 1,0 -1,0  M224.38 112.67 L224.38 112.67 236.38 112.67 M 224.38 118.67 m -1, 0 a 1,1 0 1,0 2,0 a 1,1 0 1,0 -2,0 M 224.38 118.67 m -0.5, 0 a 0.5,0.5 0 1,0 1,0 a 0.5,0.5 0 1,0 -1,0  M224.38 118.67 L224.38 118.67 231.38 112.67 224.38 106.67 M 224.38 106.67 m -1, 0 a 1,1 0 1,0 2,0 a 1,1 0 1,0 -2,0 M 224.38 106.67 m -0.5, 0 a 0.5,0.5 0 1,0 1,0 a 0.5,0.5 0 1,0 -1,0  M236.38 112.67 Q 253.29 112.67, 270.19 99.17 T 304 85.66666666666667 M 316 85.66666666666667 m -1, 0 a 1,1 0 1,0 2,0 a 1,1 0 1,0 -2,0 M 316 85.66666666666667 m -0.5, 0 a 0.5,0.5 0 1,0 1,0 a 0.5,0.5 0 1,0 -1,0  M316 85.66666666666667 L316 85.66666666666667 304 85.66666666666667 M310 91.66666666666667 L310 91.66666666666667 310 79.66666666666667" id="h2246520870" class="r"></path><path d="M 224.38 137.67000000000002 m -1, 0 a 1,1 0 1,0 2,0 a 1,1 0 1,0 -2,0 M 224.38 137.67000000000002 m -0.5, 0 a 0.5,0.5 0 1,0 1,0 a 0.5,0.5 0 1,0 -1,0  M224.38 137.67000000000002 L224.38 137.67000000000002 236.38 137.67000000000002 M 224.38 143.67000000000002 m -1, 0 a 1,1 0 1,0 2,0 a 1,1 0 1,0 -2,0 M 224.38 143.67000000000002 m -0.5, 0 a 0.5,0.5 0 1,0 1,0 a 0.5,0.5 0 1,0 -1,0  M224.38 143.67000000000002 L224.38 143.67000000000002 231.38 137.67000000000002 224.38 131.67000000000002 M 224.38 131.67000000000002 m -1, 0 a 1,1 0 1,0 2,0 a 1,1 0 1,0 -2,0 M 224.38 131.67000000000002 m -0.5, 0 a 0.5,0.5 0 1,0 1,0 a 0.5,0.5 0 1,0 -1,0  M236.38 137.67000000000002 C 286.38 137.67000000000002, 294.588 373.33, 222.7 373.33 M 210.7 373.33 m -1, 0 a 1,1 0 1,0 2,0 a 1,1 0 1,0 -2,0 M 210.7 373.33 m -0.5, 0 a 0.5,0.5 0 1,0 1,0 a 0.5,0.5 0 1,0 -1,0  M210.7 373.33 L210.7 373.33 222.7 373.33 M216.7 379.33 L216.7 379.33 216.7 367.33" id="h1479079419" class="r"></path><path d="M 588.8888888888894 106.44444444444446 m -1, 0 a 1,1 0 1,0 2,0 a 1,1 0 1,0 -2,0 M 588.8888888888894 106.44444444444446 m -0.5, 0 a 0.5,0.5 0 1,0 1,0 a 0.5,0.5 0 1,0 -1,0  M588.8888888888894 106.44444444444446 L588.8888888888894 106.44444444444446 576.8888888888894 106.44444444444446 M 588.8888888888894 112.44444444444446 m -1, 0 a 1,1 0 1,0 2,0 a 1,1 0 1,0 -2,0 M 588.8888888888894 112.44444444444446 m -0.5, 0 a 0.5,0.5 0 1,0 1,0 a 0.5,0.5 0 1,0 -1,0  M588.8888888888894 112.44444444444446 L588.8888888888894 112.44444444444446 581.8888888888894 106.44444444444446 588.8888888888894 100.44444444444446 M 588.8888888888894 100.44444444444446 m -1, 0 a 1,1 0 1,0 2,0 a 1,1 0 1,0 -2,0 M 588.8888888888894 100.44444444444446 m -0.5, 0 a 0.5,0.5 0 1,0 1,0 a 0.5,0.5 0 1,0 -1,0  M576.8888888888894 106.44444444444446 Q 548.18 106.44444444444446, 519.47 96.06 T 462.06 85.66666666666667 M 450.06 85.66666666666667 m -1, 0 a 1,1 0 1,0 2,0 a 1,1 0 1,0 -2,0 M 450.06 85.66666666666667 m -0.5, 0 a 0.5,0.5 0 1,0 1,0 a 0.5,0.5 0 1,0 -1,0  M450.06 85.66666666666667 L450.06 85.66666666666667 462.06 85.66666666666667 M456.06 91.66666666666667 L456.06 91.66666666666667 456.06 79.66666666666667" id="h2761096634" class="r"></path><path d="M 754.96 131.44444444444446 m -1, 0 a 1,1 0 1,0 2,0 a 1,1 0 1,0 -2,0 M 754.96 131.44444444444446 m -0.5, 0 a 0.5,0.5 0 1,0 1,0 a 0.5,0.5 0 1,0 -1,0  M754.96 131.44444444444446 L754.96 131.44444444444446 766.96 131.44444444444446 M 754.96 137.44444444444446 m -1, 0 a 1,1 0 1,0 2,0 a 1,1 0 1,0 -2,0 M 754.96 137.44444444444446 m -0.5, 0 a 0.5,0.5 0 1,0 1,0 a 0.5,0.5 0 1,0 -1,0  M754.96 137.44444444444446 L754.96 137.44444444444446 761.96 131.44444444444446 754.96 125.44444444444446 M 754.96 125.44444444444446 m -1, 0 a 1,1 0 1,0 2,0 a 1,1 0 1,0 -2,0 M 754.96 125.44444444444446 m -0.5, 0 a 0.5,0.5 0 1,0 1,0 a 0.5,0.5 0 1,0 -1,0  M766.96 131.44444444444446 Q 784.42 131.44444444444446, 801.87 104.83 T 836.78 78.22 M 848.78 78.22 m -1, 0 a 1,1 0 1,0 2,0 a 1,1 0 1,0 -2,0 M 848.78 78.22 m -0.5, 0 a 0.5,0.5 0 1,0 1,0 a 0.5,0.5 0 1,0 -1,0  M848.78 78.22 L848.78 78.22 836.78 78.22 M842.78 84.22 L842.78 84.22 842.78 72.22" id="h4142462581" class="r"></path></g><g class="hrs"></g><g class="ts"><svg width="118.03" height="175" x="92.67" y="316.33" id="h1537667952" class="t"><rect height="40" width="118.03" class="th"></rect><text x="13" y="25" class="tht">User</text><rect height="135" width="118.03" class="t-bg"></rect><text x="13" y="61" class="tf pk">user_id<tspan x="105.03" class="ty">int</tspan></text><path d="M7,14A2,2 0 0,1 5,12A2,2 0 0,1 7,10A2,2 0 0,1 9,12A2,2 0 0,1 7,14M12.65,10C11.83,7.67 9.61,6 7, 6A6, 6 0 0, 0 1, 12A6, 6 0 0, 0 7, 18C9.61, 18 11.83, 16.33 12.65, 14H17V18H21V14H23V10H12.65Z" class="i pk" transform="translate(72.356171875, 48) scale(0.65)"></path><text x="13" y="86" class="tf">email<tspan x="105.03" class="ty">string</tspan></text><text x="13" y="111" class="tf">login<tspan x="105.03" class="ty">string</tspan></text><text x="13" y="136" class="tf">name<tspan x="105.03" class="ty">string</tspan></text><text x="13" y="161" class="tf">birthday<tspan x="105.03" class="ty">date</tspan></text></svg><svg width="165.39" height="150" x="316.33" y="317.33" id="h4266738316" class="t"><rect height="40" width="165.39" class="th"></rect><text x="13" y="25" class="tht">Friends_list</text><rect height="110" width="165.39" class="t-bg"></rect><text x="13" y="61" class="tf pk">friend_record_id<tspan x="152.39" class="ty">int</tspan></text><path d="M7,14A2,2 0 0,1 5,12A2,2 0 0,1 7,10A2,2 0 0,1 9,12A2,2 0 0,1 7,14M12.65,10C11.83,7.67 9.61,6 7, 6A6, 6 0 0, 0 1, 12A6, 6 0 0, 0 7, 18C9.61, 18 11.83, 16.33 12.65, 14H17V18H21V14H23V10H12.65Z" class="i pk" transform="translate(119.71617187499999, 48) scale(0.65)"></path><text x="13" y="86" class="tf fk">sender_id<tspan x="152.39" class="ty">int</tspan></text><text x="13" y="111" class="tf fk">accepter_id<tspan x="152.39" class="ty">int</tspan></text><text x="13" y="136" class="tf fk">status_id<tspan x="152.39" class="ty">int</tspan></text></svg><svg width="136.5" height="100" x="589.45" y="312" id="h1756358240" class="t"><rect height="40" width="136.5" class="th"></rect><text x="13" y="25" class="tht">Friendship_status</text><rect height="60" width="136.5" class="t-bg"></rect><text x="13" y="61" class="tf pk">status_id<tspan x="123.5" class="ty">int</tspan></text><path d="M7,14A2,2 0 0,1 5,12A2,2 0 0,1 7,10A2,2 0 0,1 9,12A2,2 0 0,1 7,14M12.65,10C11.83,7.67 9.61,6 7, 6A6, 6 0 0, 0 1, 12A6, 6 0 0, 0 7, 18C9.61, 18 11.83, 16.33 12.65, 14H17V18H21V14H23V10H12.65Z" class="i pk" transform="translate(90.826171875, 48) scale(0.65)"></path><text x="13" y="86" class="tf">status_name<tspan x="123.5" class="ty">str</tspan></text></svg><svg width="142.73" height="100" x="848.78" y="21.22" id="h807582512" class="t"><rect height="40" width="142.73" class="th"></rect><text x="13" y="25" class="tht">Genre</text><rect height="60" width="142.73" class="t-bg"></rect><text x="13" y="61" class="tf pk">genre_id<tspan x="129.73" class="ty">int</tspan></text><path d="M7,14A2,2 0 0,1 5,12A2,2 0 0,1 7,10A2,2 0 0,1 9,12A2,2 0 0,1 7,14M12.65,10C11.83,7.67 9.61,6 7, 6A6, 6 0 0, 0 1, 12A6, 6 0 0, 0 7, 18C9.61, 18 11.83, 16.33 12.65, 14H17V18H21V14H23V10H12.65Z" class="i pk" transform="translate(97.05617187499999, 48) scale(0.65)"></path><text x="13" y="86" class="tf">genre_name<tspan x="129.73" class="ty">string</tspan></text></svg><svg width="138.71" height="100" x="591.78" y="177.78" id="h3920516257" class="t"><rect height="40" width="138.71" class="th"></rect><text x="13" y="25" class="tht">Rating</text><rect height="60" width="138.71" class="t-bg"></rect><text x="13" y="61" class="tf pk">rating_id<tspan x="125.71000000000001" class="ty">int</tspan></text><path d="M7,14A2,2 0 0,1 5,12A2,2 0 0,1 7,10A2,2 0 0,1 9,12A2,2 0 0,1 7,14M12.65,10C11.83,7.67 9.61,6 7, 6A6, 6 0 0, 0 1, 12A6, 6 0 0, 0 7, 18C9.61, 18 11.83, 16.33 12.65, 14H17V18H21V14H23V10H12.65Z" class="i pk" transform="translate(93.03617187500001, 48) scale(0.65)"></path><text x="13" y="86" class="tf">rating_name<tspan x="125.71000000000001" class="ty">stritg</tspan></text></svg><svg width="153.38" height="125" x="71" y="30.67" id="h2477402307" class="t"><rect height="40" width="153.38" class="th"></rect><text x="13" y="25" class="tht">Film_likes</text><rect height="85" width="153.38" class="t-bg"></rect><text x="13" y="61" class="tf pk">like_record_id<tspan x="140.38" class="ty">int</tspan></text><path d="M7,14A2,2 0 0,1 5,12A2,2 0 0,1 7,10A2,2 0 0,1 9,12A2,2 0 0,1 7,14M12.65,10C11.83,7.67 9.61,6 7, 6A6, 6 0 0, 0 1, 12A6, 6 0 0, 0 7, 18C9.61, 18 11.83, 16.33 12.65, 14H17V18H21V14H23V10H12.65Z" class="i pk" transform="translate(107.706171875, 48) scale(0.65)"></path><text x="13" y="86" class="tf fk">film_id<tspan x="140.38" class="ty">int</tspan></text><text x="13" y="111" class="tf fk">user_id<tspan x="140.38" class="ty">int</tspan></text></svg><svg width="166.07" height="125" x="588.8888888888894" y="24.44444444444445" id="h4196688276" class="t"><rect height="40" width="166.07" class="th"></rect><text x="13" y="25" class="tht">Film_genres</text><rect height="85" width="166.07" class="t-bg"></rect><text x="13" y="61" class="tf pk">genre_record_id<tspan x="153.07" class="ty">int</tspan></text><path d="M7,14A2,2 0 0,1 5,12A2,2 0 0,1 7,10A2,2 0 0,1 9,12A2,2 0 0,1 7,14M12.65,10C11.83,7.67 9.61,6 7, 6A6, 6 0 0, 0 1, 12A6, 6 0 0, 0 7, 18C9.61, 18 11.83, 16.33 12.65, 14H17V18H21V14H23V10H12.65Z" class="i pk" transform="translate(120.396171875, 48) scale(0.65)"></path><text x="13" y="86" class="tf fk">film_id<tspan x="153.07" class="ty">int</tspan></text><text x="13" y="111" class="tf fk">rating_id<tspan x="153.07" class="ty">int</tspan></text></svg><svg width="134.06" height="200" x="316" y="28.666666666666668" id="h2744470858" class="t"><rect height="40" width="134.06" class="th"></rect><text x="13" y="25" class="tht">Film</text><rect height="160" width="134.06" class="t-bg"></rect><text x="13" y="61" class="tf pk">film_id<tspan x="121.06" class="ty">int</tspan></text><path d="M7,14A2,2 0 0,1 5,12A2,2 0 0,1 7,10A2,2 0 0,1 9,12A2,2 0 0,1 7,14M12.65,10C11.83,7.67 9.61,6 7, 6A6, 6 0 0, 0 1, 12A6, 6 0 0, 0 7, 18C9.61, 18 11.83, 16.33 12.65, 14H17V18H21V14H23V10H12.65Z" class="i pk" transform="translate(88.386171875, 48) scale(0.65)"></path><text x="13" y="86" class="tf">name<tspan x="121.06" class="ty">string</tspan></text><text x="13" y="111" class="tf">description<tspan x="121.06" class="ty">string</tspan></text><text x="13" y="136" class="tf">releaseDate<tspan x="121.06" class="ty">date</tspan></text><text x="13" y="161" class="tf">duration<tspan x="121.06" class="ty">int</tspan></text><text x="13" y="186" class="tf fk">rating_id<tspan x="121.06" class="ty">int</tspan></text></svg></g></g><text class="qdbd-link" x="10" y="20">www.quickdatabasediagrams.com</text></svg>