<svg class="diagram-root" style="background: #f5f6f6" xmlns="http://www.w3.org/2000/svg" xmlns:xlink="http://www.w3.org/1999/xlink"><style>.diagram-root { font-family: "Helvetica Neue", sans-serif; font-size: 12px; } .t { overflow: visible; } .t-bg { y: 40; fill: #fff;   } .th { fill: #005aa0;   } .tht { fill: #fff; font-size: 14px;  } .tf { fill: #323c46; overflow: visible; } .tf.pk { fill: #005aa0; font-weight: bold; } .tf.fk { font-weight: bold; } .ty { fill: #adb1b5; font-weight: normal; text-anchor: end; } .r { fill: transparent; stroke: #c3c3c3; stroke-width: 1; } .l { stroke: 1; } .i { fill: #c2c7ce; stroke: #c2c7ce; } .i.ix { fill: #afb3b6; stroke: #000; } .fa { fill: transparent; overflow: visible; } .fa .bg.hover { fill: #f7f7f7; } .c { cy: 12; r: 4; stroke: #d2d2dc; fill: #d2d2dc; } .hr { fill: transparent; stroke: #323c46; stroke-opacity: 0.035; stroke-width: 13; } .dc { stroke: #fa5a3c; fill: #fa5a3c; } .x { stroke: white; stroke-width: 1; } .hl .th { fill: #1b9bff; } .hl .tht {  } .fhl .bg { fill: #e7f4ff; } .fhls .bg {  } .r.hl { stroke: #1b9bff; } .dim { opacity: 0.25; }</style><g class="drawing-wrapper" transform="translate(-49.000000000000085, 1) scale(1,1)"><g class="rs"><path d="M 316.33333333333326 399.3333333333337 m -1, 0 a 1,1 0 1,0 2,0 a 1,1 0 1,0 -2,0 M 316.33333333333326 399.3333333333337 m -0.5, 0 a 0.5,0.5 0 1,0 1,0 a 0.5,0.5 0 1,0 -1,0  M316.33333333333326 399.3333333333337 L316.33333333333326 399.3333333333337 304.33333333333326 399.3333333333337 M 316.33333333333326 405.3333333333337 m -1, 0 a 1,1 0 1,0 2,0 a 1,1 0 1,0 -2,0 M 316.33333333333326 405.3333333333337 m -0.5, 0 a 0.5,0.5 0 1,0 1,0 a 0.5,0.5 0 1,0 -1,0  M316.33333333333326 405.3333333333337 L316.33333333333326 405.3333333333337 309.33333333333326 399.3333333333337 316.33333333333326 393.3333333333337 M 316.33333333333326 393.3333333333337 m -1, 0 a 1,1 0 1,0 2,0 a 1,1 0 1,0 -2,0 M 316.33333333333326 393.3333333333337 m -0.5, 0 a 0.5,0.5 0 1,0 1,0 a 0.5,0.5 0 1,0 -1,0  M304.33333333333326 399.3333333333337 Q 283.93 399.3333333333337, 263.52 386.33 T 222.7 373.3333333333339 M 210.7 373.3333333333339 m -1, 0 a 1,1 0 1,0 2,0 a 1,1 0 1,0 -2,0 M 210.7 373.3333333333339 m -0.5, 0 a 0.5,0.5 0 1,0 1,0 a 0.5,0.5 0 1,0 -1,0  M210.7 373.3333333333339 L210.7 373.3333333333339 222.7 373.3333333333339 M216.7 379.3333333333339 L216.7 379.3333333333339 216.7 367.3333333333339" id="h1543221608" class="r"></path><path d="M 316.33333333333326 424.3333333333337 m -1, 0 a 1,1 0 1,0 2,0 a 1,1 0 1,0 -2,0 M 316.33333333333326 424.3333333333337 m -0.5, 0 a 0.5,0.5 0 1,0 1,0 a 0.5,0.5 0 1,0 -1,0  M316.33333333333326 424.3333333333337 L316.33333333333326 424.3333333333337 304.33333333333326 424.3333333333337 M 316.33333333333326 430.3333333333337 m -1, 0 a 1,1 0 1,0 2,0 a 1,1 0 1,0 -2,0 M 316.33333333333326 430.3333333333337 m -0.5, 0 a 0.5,0.5 0 1,0 1,0 a 0.5,0.5 0 1,0 -1,0  M316.33333333333326 430.3333333333337 L316.33333333333326 430.3333333333337 309.33333333333326 424.3333333333337 316.33333333333326 418.3333333333337 M 316.33333333333326 418.3333333333337 m -1, 0 a 1,1 0 1,0 2,0 a 1,1 0 1,0 -2,0 M 316.33333333333326 418.3333333333337 m -0.5, 0 a 0.5,0.5 0 1,0 1,0 a 0.5,0.5 0 1,0 -1,0  M304.33333333333326 424.3333333333337 Q 283.93 424.3333333333337, 263.52 398.83 T 222.7 373.3333333333339 M 210.7 373.3333333333339 m -1, 0 a 1,1 0 1,0 2,0 a 1,1 0 1,0 -2,0 M 210.7 373.3333333333339 m -0.5, 0 a 0.5,0.5 0 1,0 1,0 a 0.5,0.5 0 1,0 -1,0  M210.7 373.3333333333339 L210.7 373.3333333333339 222.7 373.3333333333339 M216.7 379.3333333333339 L216.7 379.3333333333339 216.7 367.3333333333339" id="h493604816" class="r"></path><path d="M 481.72 449.3333333333337 m -1, 0 a 1,1 0 1,0 2,0 a 1,1 0 1,0 -2,0 M 481.72 449.3333333333337 m -0.5, 0 a 0.5,0.5 0 1,0 1,0 a 0.5,0.5 0 1,0 -1,0  M481.72 449.3333333333337 L481.72 449.3333333333337 493.72 449.3333333333337 M 481.72 455.3333333333337 m -1, 0 a 1,1 0 1,0 2,0 a 1,1 0 1,0 -2,0 M 481.72 455.3333333333337 m -0.5, 0 a 0.5,0.5 0 1,0 1,0 a 0.5,0.5 0 1,0 -1,0  M481.72 455.3333333333337 L481.72 455.3333333333337 488.72 449.3333333333337 481.72 443.3333333333337 M 481.72 443.3333333333337 m -1, 0 a 1,1 0 1,0 2,0 a 1,1 0 1,0 -2,0 M 481.72 443.3333333333337 m -0.5, 0 a 0.5,0.5 0 1,0 1,0 a 0.5,0.5 0 1,0 -1,0  M493.72 449.3333333333337 Q 522.71 449.3333333333337, 551.69 411.94 T 609.6666666666667 374.55555555555577 M 621.6666666666667 374.55555555555577 m -1, 0 a 1,1 0 1,0 2,0 a 1,1 0 1,0 -2,0 M 621.6666666666667 374.55555555555577 m -0.5, 0 a 0.5,0.5 0 1,0 1,0 a 0.5,0.5 0 1,0 -1,0  M621.6666666666667 374.55555555555577 L621.6666666666667 374.55555555555577 609.6666666666667 374.55555555555577 M615.6666666666667 380.55555555555577 L615.6666666666667 380.55555555555577 615.6666666666667 368.55555555555577" id="h1849332151" class="r"></path><path d="M 450.06 214 m -1, 0 a 1,1 0 1,0 2,0 a 1,1 0 1,0 -2,0 M 450.06 214 m -0.5, 0 a 0.5,0.5 0 1,0 1,0 a 0.5,0.5 0 1,0 -1,0  M450.06 214 L450.06 214 462.06 214 M 450.06 220 m -1, 0 a 1,1 0 1,0 2,0 a 1,1 0 1,0 -2,0 M 450.06 220 m -0.5, 0 a 0.5,0.5 0 1,0 1,0 a 0.5,0.5 0 1,0 -1,0  M450.06 220 L450.06 220 457.06 214 450.06 208 M 450.06 208 m -1, 0 a 1,1 0 1,0 2,0 a 1,1 0 1,0 -2,0 M 450.06 208 m -0.5, 0 a 0.5,0.5 0 1,0 1,0 a 0.5,0.5 0 1,0 -1,0  M462.06 214 Q 498.79 214, 535.53 150 T 609 86 M 621 86 m -1, 0 a 1,1 0 1,0 2,0 a 1,1 0 1,0 -2,0 M 621 86 m -0.5, 0 a 0.5,0.5 0 1,0 1,0 a 0.5,0.5 0 1,0 -1,0  M621 86 L621 86 609 86 M615 92 L615 92 615 80" id="h137822289" class="r"></path><path d="M 450.06 239 m -1, 0 a 1,1 0 1,0 2,0 a 1,1 0 1,0 -2,0 M 450.06 239 m -0.5, 0 a 0.5,0.5 0 1,0 1,0 a 0.5,0.5 0 1,0 -1,0  M450.06 239 L450.06 239 462.06 239 M 450.06 245 m -1, 0 a 1,1 0 1,0 2,0 a 1,1 0 1,0 -2,0 M 450.06 245 m -0.5, 0 a 0.5,0.5 0 1,0 1,0 a 0.5,0.5 0 1,0 -1,0  M450.06 245 L450.06 245 457.06 239 450.06 233 M 450.06 233 m -1, 0 a 1,1 0 1,0 2,0 a 1,1 0 1,0 -2,0 M 450.06 233 m -0.5, 0 a 0.5,0.5 0 1,0 1,0 a 0.5,0.5 0 1,0 -1,0  M462.06 239 Q 499.27 239, 536.47 239.11 T 610.8888888888889 239.22222222222223 M 622.8888888888889 239.22222222222223 m -1, 0 a 1,1 0 1,0 2,0 a 1,1 0 1,0 -2,0 M 622.8888888888889 239.22222222222223 m -0.5, 0 a 0.5,0.5 0 1,0 1,0 a 0.5,0.5 0 1,0 -1,0  M622.8888888888889 239.22222222222223 L622.8888888888889 239.22222222222223 610.8888888888889 239.22222222222223 M616.8888888888889 245.22222222222223 L616.8888888888889 245.22222222222223 616.8888888888889 233.22222222222223" id="h3504355322" class="r"></path><path d="M 224.38 112.66666666666666 m -1, 0 a 1,1 0 1,0 2,0 a 1,1 0 1,0 -2,0 M 224.38 112.66666666666666 m -0.5, 0 a 0.5,0.5 0 1,0 1,0 a 0.5,0.5 0 1,0 -1,0  M224.38 112.66666666666666 L224.38 112.66666666666666 236.38 112.66666666666666 M 224.38 118.66666666666666 m -1, 0 a 1,1 0 1,0 2,0 a 1,1 0 1,0 -2,0 M 224.38 118.66666666666666 m -0.5, 0 a 0.5,0.5 0 1,0 1,0 a 0.5,0.5 0 1,0 -1,0  M224.38 118.66666666666666 L224.38 118.66666666666666 231.38 112.66666666666666 224.38 106.66666666666666 M 224.38 106.66666666666666 m -1, 0 a 1,1 0 1,0 2,0 a 1,1 0 1,0 -2,0 M 224.38 106.66666666666666 m -0.5, 0 a 0.5,0.5 0 1,0 1,0 a 0.5,0.5 0 1,0 -1,0  M236.38 112.66666666666666 Q 253.29 112.66666666666666, 270.19 100.83 T 304 89 M 316 89 m -1, 0 a 1,1 0 1,0 2,0 a 1,1 0 1,0 -2,0 M 316 89 m -0.5, 0 a 0.5,0.5 0 1,0 1,0 a 0.5,0.5 0 1,0 -1,0  M316 89 L316 89 304 89 M310 95 L310 95 310 83" id="h2246520870" class="r"></path><path d="M 224.38 137.66666666666666 m -1, 0 a 1,1 0 1,0 2,0 a 1,1 0 1,0 -2,0 M 224.38 137.66666666666666 m -0.5, 0 a 0.5,0.5 0 1,0 1,0 a 0.5,0.5 0 1,0 -1,0  M224.38 137.66666666666666 L224.38 137.66666666666666 236.38 137.66666666666666 M 224.38 143.66666666666666 m -1, 0 a 1,1 0 1,0 2,0 a 1,1 0 1,0 -2,0 M 224.38 143.66666666666666 m -0.5, 0 a 0.5,0.5 0 1,0 1,0 a 0.5,0.5 0 1,0 -1,0  M224.38 143.66666666666666 L224.38 143.66666666666666 231.38 137.66666666666666 224.38 131.66666666666666 M 224.38 131.66666666666666 m -1, 0 a 1,1 0 1,0 2,0 a 1,1 0 1,0 -2,0 M 224.38 131.66666666666666 m -0.5, 0 a 0.5,0.5 0 1,0 1,0 a 0.5,0.5 0 1,0 -1,0  M236.38 137.66666666666666 C 286.38 137.66666666666666, 294.588 373.3333333333339, 222.7 373.3333333333339 M 210.7 373.3333333333339 m -1, 0 a 1,1 0 1,0 2,0 a 1,1 0 1,0 -2,0 M 210.7 373.3333333333339 m -0.5, 0 a 0.5,0.5 0 1,0 1,0 a 0.5,0.5 0 1,0 -1,0  M210.7 373.3333333333339 L210.7 373.3333333333339 222.7 373.3333333333339 M216.7 379.3333333333339 L216.7 379.3333333333339 216.7 367.3333333333339" id="h1479079419" class="r"></path></g><g class="hrs"></g><g class="ts"><svg width="134.06" height="225" x="316" y="32" id="h2744470858" class="t"><rect height="40" width="134.06" class="th"></rect><text x="13" y="25" class="tht">Film</text><rect height="185" width="134.06" class="t-bg"></rect><text x="13" y="61" class="tf pk">film_id<tspan x="121.06" class="ty">int</tspan></text><path d="M7,14A2,2 0 0,1 5,12A2,2 0 0,1 7,10A2,2 0 0,1 9,12A2,2 0 0,1 7,14M12.65,10C11.83,7.67 9.61,6 7, 6A6, 6 0 0, 0 1, 12A6, 6 0 0, 0 7, 18C9.61, 18 11.83, 16.33 12.65, 14H17V18H21V14H23V10H12.65Z" class="i pk" transform="translate(88.386171875, 48) scale(0.65)"></path><text x="13" y="86" class="tf">name<tspan x="121.06" class="ty">string</tspan></text><text x="13" y="111" class="tf">description<tspan x="121.06" class="ty">string</tspan></text><text x="13" y="136" class="tf">releaseDate<tspan x="121.06" class="ty">date</tspan></text><text x="13" y="161" class="tf">duration<tspan x="121.06" class="ty">int</tspan></text><text x="13" y="186" class="tf fk">genre_id<tspan x="121.06" class="ty">int</tspan></text><text x="13" y="211" class="tf fk">rating_id<tspan x="121.06" class="ty">int</tspan></text></svg><svg width="142.73" height="100" x="621" y="29" id="h807582512" class="t"><rect height="40" width="142.73" class="th"></rect><text x="13" y="25" class="tht">Genre</text><rect height="60" width="142.73" class="t-bg"></rect><text x="13" y="61" class="tf pk">genre_id<tspan x="129.73" class="ty">int</tspan></text><path d="M7,14A2,2 0 0,1 5,12A2,2 0 0,1 7,10A2,2 0 0,1 9,12A2,2 0 0,1 7,14M12.65,10C11.83,7.67 9.61,6 7, 6A6, 6 0 0, 0 1, 12A6, 6 0 0, 0 7, 18C9.61, 18 11.83, 16.33 12.65, 14H17V18H21V14H23V10H12.65Z" class="i pk" transform="translate(97.05617187499999, 48) scale(0.65)"></path><text x="13" y="86" class="tf">genre_name<tspan x="129.73" class="ty">string</tspan></text></svg><svg width="138.71" height="100" x="622.8888888888889" y="182.22222222222223" id="h3920516257" class="t"><rect height="40" width="138.71" class="th"></rect><text x="13" y="25" class="tht">Rating</text><rect height="60" width="138.71" class="t-bg"></rect><text x="13" y="61" class="tf pk">rating_id<tspan x="125.71000000000001" class="ty">int</tspan></text><path d="M7,14A2,2 0 0,1 5,12A2,2 0 0,1 7,10A2,2 0 0,1 9,12A2,2 0 0,1 7,14M12.65,10C11.83,7.67 9.61,6 7, 6A6, 6 0 0, 0 1, 12A6, 6 0 0, 0 7, 18C9.61, 18 11.83, 16.33 12.65, 14H17V18H21V14H23V10H12.65Z" class="i pk" transform="translate(93.03617187500001, 48) scale(0.65)"></path><text x="13" y="86" class="tf">rating_name<tspan x="125.71000000000001" class="ty">stritg</tspan></text></svg><svg width="136.5" height="100" x="621.6666666666667" y="317.55555555555577" id="h1756358240" class="t"><rect height="40" width="136.5" class="th"></rect><text x="13" y="25" class="tht">Friendship_status</text><rect height="60" width="136.5" class="t-bg"></rect><text x="13" y="61" class="tf pk">status_id<tspan x="123.5" class="ty">int</tspan></text><path d="M7,14A2,2 0 0,1 5,12A2,2 0 0,1 7,10A2,2 0 0,1 9,12A2,2 0 0,1 7,14M12.65,10C11.83,7.67 9.61,6 7, 6A6, 6 0 0, 0 1, 12A6, 6 0 0, 0 7, 18C9.61, 18 11.83, 16.33 12.65, 14H17V18H21V14H23V10H12.65Z" class="i pk" transform="translate(90.826171875, 48) scale(0.65)"></path><text x="13" y="86" class="tf">status_name<tspan x="123.5" class="ty">str</tspan></text></svg><svg width="165.39" height="150" x="316.33333333333326" y="317.3333333333337" id="h4266738316" class="t"><rect height="40" width="165.39" class="th"></rect><text x="13" y="25" class="tht">Friends_list</text><rect height="110" width="165.39" class="t-bg"></rect><text x="13" y="61" class="tf pk">friend_record_id<tspan x="152.39" class="ty">int</tspan></text><path d="M7,14A2,2 0 0,1 5,12A2,2 0 0,1 7,10A2,2 0 0,1 9,12A2,2 0 0,1 7,14M12.65,10C11.83,7.67 9.61,6 7, 6A6, 6 0 0, 0 1, 12A6, 6 0 0, 0 7, 18C9.61, 18 11.83, 16.33 12.65, 14H17V18H21V14H23V10H12.65Z" class="i pk" transform="translate(119.71617187499999, 48) scale(0.65)"></path><text x="13" y="86" class="tf fk">sender_id<tspan x="152.39" class="ty">int</tspan></text><text x="13" y="111" class="tf fk">accepter_id<tspan x="152.39" class="ty">int</tspan></text><text x="13" y="136" class="tf fk">status_id<tspan x="152.39" class="ty">int</tspan></text></svg><svg width="118.03" height="175" x="92.66666666666681" y="316.3333333333339" id="h1537667952" class="t"><rect height="40" width="118.03" class="th"></rect><text x="13" y="25" class="tht">User</text><rect height="135" width="118.03" class="t-bg"></rect><text x="13" y="61" class="tf pk">user_id<tspan x="105.03" class="ty">int</tspan></text><path d="M7,14A2,2 0 0,1 5,12A2,2 0 0,1 7,10A2,2 0 0,1 9,12A2,2 0 0,1 7,14M12.65,10C11.83,7.67 9.61,6 7, 6A6, 6 0 0, 0 1, 12A6, 6 0 0, 0 7, 18C9.61, 18 11.83, 16.33 12.65, 14H17V18H21V14H23V10H12.65Z" class="i pk" transform="translate(72.356171875, 48) scale(0.65)"></path><text x="13" y="86" class="tf">email<tspan x="105.03" class="ty">string</tspan></text><text x="13" y="111" class="tf">login<tspan x="105.03" class="ty">string</tspan></text><text x="13" y="136" class="tf">name<tspan x="105.03" class="ty">string</tspan></text><text x="13" y="161" class="tf">birthday<tspan x="105.03" class="ty">date</tspan></text></svg><svg width="153.38" height="125" x="71.00000000000009" y="30.666666666666664" id="h2477402307" class="t"><rect height="40" width="153.38" class="th"></rect><text x="13" y="25" class="tht">Film_likes</text><rect height="85" width="153.38" class="t-bg"></rect><text x="13" y="61" class="tf pk">like_record_id<tspan x="140.38" class="ty">int</tspan></text><path d="M7,14A2,2 0 0,1 5,12A2,2 0 0,1 7,10A2,2 0 0,1 9,12A2,2 0 0,1 7,14M12.65,10C11.83,7.67 9.61,6 7, 6A6, 6 0 0, 0 1, 12A6, 6 0 0, 0 7, 18C9.61, 18 11.83, 16.33 12.65, 14H17V18H21V14H23V10H12.65Z" class="i pk" transform="translate(107.706171875, 48) scale(0.65)"></path><text x="13" y="86" class="tf fk">film_id<tspan x="140.38" class="ty">int</tspan></text><text x="13" y="111" class="tf fk">user_id<tspan x="140.38" class="ty">int</tspan></text></svg></g></g><text class="qdbd-link" x="10" y="20">www.quickdatabasediagrams.com</text></svg>